<svg xmlns="http://www.w3.org/2000/svg" xmlns:xlink="http://www.w3.org/1999/xlink" fill="none" version="1.1" width="955.6796875" height="197.867919921875" viewBox="0 0 955.6796875 197.867919921875"><g><g><g><g><g><path d="M13.75,153.26001953125C16.94,152.49001953125,20.13,151.61001953125,23.43,150.40001953125C26.73,149.30001953125,29.92,147.98001953124998,33.11,146.33001953125C36.19,144.68001953125,39.16,142.81001953125002,42.13,140.50001953125002C44.99,138.30001953125,47.63,135.66001953125,50.05,132.69001953125002C50.27,132.36001953125,50.49,132.14001953125,50.71,131.81001953125002C51.81,132.80001953125,52.8,133.90001953125,53.79,135.00001953125002C55,136.65001953125,56.21,138.52001953125,57.42,140.50001953125002C58.52,142.59001953125,59.62,144.68001953125,60.61,146.88001953125C61.6,149.08001953125,62.48,151.28001953125,63.47,153.59001953125C73.04,152.71001953125,80.74,151.61001953125,86.57,150.29001953124998C92.4,149.08001953125,96.8,147.32001953125,99.88,145.12001953125C102.96,143.03001953125,104.94,140.28001953125,105.93,136.98001953124998C106.92,133.68001953125,107.36,129.61001953125,107.36,124.88001953125L107.36,85.28001953125L63.69,85.28001953125C63.91,80.77001953125,64.13,75.27001953125,64.24,68.89001953125L37.95,68.89001953125C37.95,72.41002953125,37.84,75.71001953125,37.73,78.57001953125C37.07,77.91001953125,36.19,77.25001953125,35.42,76.59002953125C33.77,75.16002953125,32.01,73.72997953125,30.14,72.29998953125C28.27,70.86999953125,26.18,69.43999953125,23.87,68.01000953125L10.23,77.58001953125C12.87,79.67001953125,15.51,81.76001953125,18.15,83.96001953125C18.7,84.40001953125,19.14,84.84001953125,19.58,85.28001953125L6.27002,85.28001953125L6.27002,106.07001953125L35.2,106.07001953125C34.54,109.26001953125001,33.66,112.12001953125,32.56,114.65001953125C31.35,117.40001953125,29.59,119.71001953125,27.5,121.69001953125C24.64,124.44001953125,21.01,126.53001953124999,16.61,128.07001953125C12.21,129.61001953125,6.70999,130.27001953125,0,129.94001953125002C3.52002,133.90001953125,6.38,137.97001953125,8.69,142.04001953124998C11,146.11001953125,12.65,149.85001953124998,13.75,153.26001953125ZM57.75,118.50001953124999C59.29,119.82001953125,60.83,121.14001953125,62.37,122.46001953125C64.79,124.77001953125,67.32,127.08001953125,69.74,129.39001953125C68.53,129.61001953125,67.21,129.72001953125,65.89,129.83001953125C62.15,130.27001953125,57.42,130.49001953125,51.59,130.71001953125C53.35,128.29001953125,54.78,125.65001953125,56.1,122.68001953125C56.65,121.36001953125,57.2,119.93001953125,57.75,118.50001953124999ZM80.52,115.64001953125C80.19,115.31001953124999,79.75,114.98001953125001,79.42,114.65001953125C77.77,113.22001953125,76.01,111.68001953125,74.25,110.25001953124999C72.49,108.93001953125,70.62,107.50001953124999,68.53,106.07001953125L80.52,106.07001953125L80.52,115.64001953125ZM70.62,129.28001953125L80.52,121.69001953125L80.52,123.12001953125C80.52,124.33001953125,80.19,125.32001953125,79.53,126.09001953125C78.87,126.97001953125,77.44,127.74001953125,75.24,128.29001953125C74.03,128.73001953125,72.49,129.06001953125,70.62,129.28001953125ZM61.05,106.07001953125L67.54,106.07001953125L59.73,111.90001953125C59.84,111.35001953125,60.06,110.80001953125,60.17,110.25001953124999C60.5,108.93001953125,60.83,107.50001953124999,61.05,106.07001953125ZM37.62,85.28001953125L33.88,85.28001953125L37.62,82.53001953125C37.62,83.52001953125,37.62,84.40001953125,37.62,85.28001953125ZM229.68,113.22001953125L229.68,100.79001953125001L189.75,100.79001953125001L189.75,98.81001953124999L226.71,98.81001953124999L226.71,88.25001953125L189.75,88.25001953125L189.75,86.27001953125L226.71,86.27001953125L226.71,73.72997953125L206.03,73.72997953125C206.58,72.29998953125,207.02,70.86999953125,207.57,69.54998953125L182.82,68.55999953125C182.6,70.42998953125,182.38,72.08001953125,181.94,73.72997953125L172.26,73.72997953125C171.93,72.08001953125,171.6,70.32000953125,171.38,68.55999953125L146.63,69.54998953125C147.18,70.86999953125,147.62,72.29998953125,148.17,73.72997953125L127.6,73.72997953125L127.6,86.27001953125L164.56,86.27001953125L164.56,88.25001953125L127.6,88.25001953125L127.6,98.81001953124999L164.56,98.81001953124999L164.56,100.79001953125001L124.52,100.79001953125001L124.52,113.22001953125L229.68,113.22001953125ZM228.91,131.37001953125L228.91,116.08001953125L189.42,116.08001953125L189.42,114.54001953125001L164.78,114.54001953125001L164.78,116.08001953125L125.29,116.08001953125L125.29,131.37001953125L164.78,131.37001953125C156.64,133.24001953125,142.01,134.45001953125,122.98,134.34001953125C129.14,140.50001953125002,132.22,148.09001953125,134.42,154.14001953125C146.96,152.82001953125,165.22,150.18001953125,177.21,142.26001953125C191.51,149.63001953125,203.72,152.16001953125,220,154.03001953125C221.87,147.98001953124998,224.95,140.61001953125,231.22,134.34001953125C211.86,134.56001953125002,201.41,133.79001953124998,189.42,131.37001953125L228.91,131.37001953125ZM351.56,121.14001953125L351.56,100.57001953125L340.23,100.57001953125C343.97,96.50001953125,347.05,92.32001953125,349.8,88.25001953125L344.74,70.65001953125L297.33,70.65001953125L297.33,76.36999953125L276.43,76.36999953125C276.65,73.72997953125,276.65,71.09002953125,276.76,68.45000953125L255.64,68.45000953125C255.53,71.09002953125,255.31,73.72997953125,255.2,76.36999953125L246.84,76.36999953125L246.84,94.41001953125L253.66,94.41001953125C252.67,102.77001953125,251.13,111.02001953125,248.38,119.38001953125C252.89,122.13001953125,257.18,124.99001953125,261.25,127.85001953125C256.63,130.38001953125,250.8,132.36001953125,243.21,134.01001953125C249.92,141.49001953125,253.11,146.88001953125,256.19,154.25001953125002C265.76,151.06001953125002,273.13,146.77001953125,278.85,141.60001953124998C281.49,143.69001953125002,283.91,145.89001953125,286.33,147.98001953124998L298.32,132.69001953125002C300.63,138.96001953125,302.06,145.45001953125,301.29,152.60001953124998C335.94,153.37001953125,339.13,149.85001953124998,339.13,133.79001953124998L339.13,121.14001953125L351.56,121.14001953125ZM290.73,124.33001953125C294.69,114.65001953125,296.45,103.32001953125,297.33,90.34001953125L324.39,90.34001953125C322.96,91.88001953125,321.53,93.20001953125,319.99,94.41001953125L316.25,94.41001953125L316.25,100.57001953125L298.76,100.57001953125L298.76,121.14001953125L316.25,121.14001953125C316.25,125.87001953125,316.47,128.51001953125,315.26,129.72001953125C313.72,131.48001953124998,309.43,130.60001953124998,298.32,129.28001953125C295.57,127.52001953125,293.04,125.87001953125,290.73,124.33001953125ZM274.45,94.41001953125L277.75,94.41001953125C276.98,102.22001953125,275.77,108.49001953125,273.79,113.55001953125C272.69,112.89001953125,271.59,112.23001953125001,270.49,111.57001953125C272.25,106.07001953125,273.57,100.24001953125,274.45,94.41001953125ZM463.98,124.33001953125L463.98,103.87001953125L434.06,103.87001953125L434.06,97.49001953125L466.95,97.49001953125L466.95,77.03001953125L434.06,77.03001953125L434.06,68.99999953125L405.46,68.99999953125L405.46,77.03001953125L399.63,77.03001953125C400.29,73.95000953125,400.62,71.20000953125,400.95,68.99999953125L376.09,68.78002953125C375.98,79.56001953124999,370.92,88.03001953125,363.66,92.98001953125001C368.83,101.01001953125001,372.02,110.03001953124999,374.77,117.95001953125C375.76,117.07001953125,376.64,116.30001953125,377.52,115.42001953125L377.52,124.33001953125L405.46,124.33001953125L405.46,130.71001953125L369.05,130.71001953125L369.05,151.94001953125002L469.15,151.94001953125002L469.15,130.71001953125L434.06,130.71001953125L434.06,124.33001953125L463.98,124.33001953125ZM405.46,103.87001953125L387.64,103.87001953125C389.18,101.67001953125,390.5,99.58001953125,391.71,97.49001953125L405.46,97.49001953125L405.46,103.87001953125ZM519.97,90.34001953125L519.97,96.83001953125C512.49,94.08001953125,505.89,91.11001953125,498.3,89.35001953125L485.87,106.18001953125C492.47,107.61001953125,499.84,109.70001953125,505.67,112.45001953125L496.87,111.24001953125C493.57,122.24001953125,490.71,134.34001953125,484.77,148.42001953125C493.79,149.63001953125,502.37,151.39001953125,511.28,153.15001953125C514.69,139.73001953124998,517.77,127.52001953125,521.07,114.54001953125001L510.95,113.11001953125L519.97,100.68001953125L519.97,107.39001953125L544.06,107.39001953125L544.06,110.80001953125L521.73,110.80001953125L521.73,153.15001953125L545.82,153.15001953125L545.82,151.72001953125L565.95,151.72001953125L565.95,153.15001953125L590.15,153.15001953125L590.15,110.80001953125L567.71,110.80001953125L567.71,107.39001953125L591.8,107.39001953125L591.8,90.34001953125L567.71,90.34001953125L567.71,87.48001953125001C574.86,87.37001953125,582.01,87.26001953125,588.94,87.04001953125C588.94,81.43001953125,588.94,75.60003953125,590.04,68.99999953125C567.16,70.32000953125,544.39,70.76000953125,521.73,71.09002953125C521.95,72.29998953125,522.17,73.51000953125,522.28,74.72002953125C514.14,72.29998953125,504.68,68.66997953125,496.98,67.02001953125L485.76,84.62001953125C496.54,86.38001953125,506.44,89.35001953125,513.92,92.32001953125L522.61,77.91001953125C522.83,81.21001953125,522.83,84.62001953125,522.83,88.03001953125C529.76,87.92001953125,536.91,87.92001953125,544.06,87.81001953124999L544.06,90.34001953125L519.97,90.34001953125ZM545.82,133.46001953125L545.82,126.09001953125L565.95,126.09001953125L565.95,133.46001953125L545.82,133.46001953125ZM712.91,90.01001953125L712.91,70.86999953125L609.29,70.86999953125L609.29,90.01001953125L647.79,90.01001953125L647.57,92.98001953125001L611.82,92.98001953125001L611.82,151.83001953125L634.48,151.83001953125L634.48,111.79001953125001L638.22,111.79001953125001L638.22,146.22001953125L659.34,146.22001953125L659.34,111.79001953125001L662.97,111.79001953125001L662.97,146.22001953125L677.82,146.22001953125C678.15,148.64001953125,678.26,150.95001953125,678.48,152.82001953125C709.06,153.59001953125,710.93,151.39001953125,710.93,142.48001953124998L710.93,92.98001953125001L673.64,92.98001953125001L673.86,90.01001953125L712.91,90.01001953125ZM684.09,111.79001953125001L687.5,111.79001953125001L687.5,129.39001953125C687.5,130.38001953125,687.17,130.71001953125,684.09,130.82001953125L684.09,111.79001953125001ZM731.61,87.04001953125C739.09,88.80001953125,746.57,90.78001953125,753.83,93.31001953124999L729.41,93.31001953124999L729.41,114.87001953125L737.77,114.87001953125L737.77,129.39001953125C735.68,130.05001953125,733.59,130.60001953124998,731.61,131.15001953125C734.8,138.41001953125,736.67,144.79001953124998,738.76,152.49001953125C748.22,149.19001953125002,758.56,145.23001953124998,767.91,141.38001953125C768.13,141.93001953125,768.35,142.59001953125,768.68,143.14001953125C770,146.77001953125,770.99,150.07001953125,771.65,153.04001953124998C774.62,152.27001953125,777.7,151.61001953125,781.11,150.95001953125C784.52,150.29001953124998,787.93,149.52001953125,791.34,148.75001953125002C794.53,147.98001953124998,797.72,147.10001953124998,800.8,146.22001953125C803.44,147.10001953124998,806.08,147.98001953124998,808.83,148.86001953125C815.1,150.73001953124998,821.81,152.05001953125,828.85,152.60001953124998C829.62,149.52001953125,830.5,146.11001953125,831.71,142.48001953124998C832.92,138.85001953124998,834.24,134.34001953125,835.89,129.17001953125C832.48,129.94001953125002,829.07,130.38001953125,825.44,130.38001953125C825.11,130.38001953125,824.89,130.38001953125,824.67,130.38001953125C828.08,126.64001953125,831.27,122.79001953125001,834.35,118.72001953125L829.18,103.21001953125L781.77,103.43001953125C782.43,103.10001953125,782.98,102.77001953125,783.64,102.33001953125C785.84,101.12001953125,787.71,99.80001953125,789.25,98.59001953125C790.79,97.38001953125,792,96.39001953125,792.99,95.51001953125C794.2,94.30001953125,795.19,92.76001953125,795.74,90.89001953125C795.85,90.45001953125,796.07,90.01001953125,796.18,89.57001953125L804.43,89.57001953125C804.43,92.10001953125,804.54,93.97001953125,804.87,95.40001953125C805.09,96.83001953125,805.53,97.93001953125,806.19,98.70001953125C806.74,99.47001953125,807.62,99.91001953125,808.72,100.24001953125C809.71,100.57001953125,811.03,100.79001953125001,812.68,100.90001953125C813.89,101.01001953125001,815.54,101.12001953125,817.41,101.23001953125001C819.28,101.34001953125,821.15,101.34001953125,823.24,101.34001953125C825.33,101.34001953125,828.74,101.23001953125001,833.69,100.90001953125C833.91,94.85001953125,834.35,88.69001953125,835.12,82.31001953124999C832.15,82.53001953125,829.95,82.53001953125,828.74,82.42001953125C827.42,82.31001953124999,826.43,81.87001953125,825.77,81.21001953125C825.11,80.66001953125,824.78,79.78001953125,824.78,78.68001953125L824.78,69.88000953125L778.14,69.88000953125C778.25,72.41002953125,777.7,74.83001953125,776.71,77.03001953125C775.72,79.34001953125,774.4,81.10001953125,772.75,82.31001953124999C771.43,83.30001953125,769.56,84.07001953125,767.25,84.51001953125C764.83,84.95001953125,762.74,85.17001953125,760.98,85.17001953125C761.53,86.05001953125,762.08,87.37001953125,762.63,89.02001953125C763.07,90.78001953125,763.51,92.76001953125,763.84,94.85001953125C764.17,96.94001953125,764.39,99.25001953124999,764.61,101.56001953124999C764.83,103.98001953125001,764.94,106.40001953125,764.94,108.71001953125C766.04,108.49001953125,767.14,108.38001953125,768.13,108.16001953125L768.13,119.71001953125L773.74,119.71001953125L766.59,124.77001953125C766.37,122.90001953125,766.15,120.92001953125,766.04,118.83001953125C764.5,119.49001953125,763.07,120.04001953125001,761.53,120.70001953125L761.53,93.31001953124999L757.35,93.31001953124999L764.94,75.92998953125C756.25,71.20000953125,747.56,69.66002953125,737.77,68.11999953125L731.61,87.04001953125ZM803.88,119.71001953125C802.01,121.80001953125,800.25,123.56001953124999,798.38,124.99001953125C798.16,124.77001953125,797.83,124.66001953125,797.61,124.55001953125C796.18,123.78001953124999,794.86,122.90001953125,793.65,122.13001953125C792.44,121.47001953125,791.34,120.59001953125,790.24,119.71001953125L803.88,119.71001953125ZM767.03,128.07001953125C769.12,129.50001953125,771.32,130.93001953125,773.85,132.47001953125C772.75,132.47001953125,771.76,132.36001953125,770.66,132.25001953125002C769.67,132.14001953125,768.68,131.92001953125,767.69,131.70001953125C767.47,130.49001953125,767.25,129.28001953125,767.03,128.07001953125ZM890.34,114.87001953125L911.79,114.87001953125L911.79,152.82001953125L937.86,152.82001953125L937.86,114.87001953125L955.68,114.87001953125L955.68,91.11001953125L937.86,91.11001953125L937.86,68.11999953125L911.79,68.11999953125L911.79,91.11001953125L890.34,91.11001953125L890.34,114.87001953125ZM886.93,93.42001953125L882.75,93.42001953125L889.79,76.80999953125C880.55,71.97002953125,870.1,69.77001953125,859.98,68.34002953125L853.93,87.48001953125001C861.3,89.02001953125,868.67,91.00001953125,875.82,93.42001953125L851.62,93.42001953125L851.62,115.86001953125L860.75,115.86001953125L860.75,129.61001953125C858.77,130.27001953125,856.68,131.04001953124998,854.59,131.70001953125C857.67,139.07001953125,860.31,145.89001953125,862.18,153.15001953125C877.47,147.21001953125,888.69,143.47001953125,900.9,136.43001953125C899.8,129.50001953125,897.82,121.91001953125,897.49,114.98001953125001C893.97,116.74001953125,890.45,118.28001953124999,886.93,119.71001953125L886.93,93.42001953125Z" fill="#FFFEFE" fill-opacity="1" style="mix-blend-mode:passthrough"/></g></g><g><g><path d="M222.01998657226562,44.94C224.7799865722656,41.76,226.1599865722656,37.5,226.81998657226563,31.2L233.59998657226564,31.2L233.59998657226564,44.04L247.2799865722656,44.04L247.2799865722656,34.2C249.85998657226563,37.62,250.93998657226564,41.28,251.41998657226563,44.7C265.2199865722656,44.7,267.0199865722656,44.34,266.7799865722656,32.58L266.7799865722656,0.23999L214.0400065722656,0.23999C214.0400065722656,5.34003,214.16000657226562,9.72003,214.21999657226561,13.5C214.39999657226562,19.86,214.45998657226562,24.66,214.0400065722656,28.5C213.43997657226564,33.84,211.63998657226563,37.38,208.57998657226562,40.56C213.86001657226564,41.22,217.93997657226564,43.08,222.01998657226562,44.94ZM247.2799865722656,22.56L247.2799865722656,20.34L254.29998657226562,20.34L254.29998657226562,22.56L247.2799865722656,22.56ZM254.29998657226562,31.2C254.29998657226562,33.18,253.87998657226564,33.66,247.2799865722656,33.6L247.2799865722656,31.2L254.29998657226562,31.2ZM254.29998657226562,11.7L247.2799865722656,11.7L247.2799865722656,9.66003L254.29998657226562,9.66003L254.29998657226562,11.7ZM227.29998657226562,22.56C227.35998657226563,21.84,227.35998657226563,21.12,227.35998657226563,20.34L233.59998657226564,20.34L233.59998657226564,22.56L227.29998657226562,22.56ZM233.59998657226564,9.66003L233.59998657226564,11.7L227.41998657226563,11.7C227.41998657226563,11.04,227.41998657226563,10.38,227.41998657226563,9.66003L233.59998657226564,9.66003ZM290.3599865722656,44.82C291.31998657226563,42,292.3399865722656,39.12,293.3599865722656,36.24L312.49998657226564,36.24C313.5799865722656,39.18,314.5999865722656,42,315.55998657226564,44.82L331.0999865722656,44.82L314.17998657226565,1.26001L292.0999865722656,1.26001L275.29998657226565,44.82L290.3599865722656,44.82ZM296.7799865722656,26.88C298.81998657226563,21.36,300.8599865722656,15.84,302.9599865722656,10.38C304.99998657226564,15.84,307.0999865722656,21.36,309.0799865722656,26.88L296.7799865722656,26.88ZM340.2799865722656,13.2C343.75998657226563,13.02,347.29998657226565,12.84,350.7799865722656,12.78L350.7799865722656,33.3C347.29998657226565,33.24,343.75998657226563,33.06,340.2799865722656,32.88L340.2799865722656,44.82L375.1399865722656,44.82L375.1399865722656,32.88C371.5999865722656,33.06,368.1199865722656,33.24,364.5799865722656,33.3L364.5799865722656,12.78C368.1199865722656,12.84,371.5999865722656,13.02,375.1399865722656,13.2L375.1399865722656,1.26001L340.2799865722656,1.26001L340.2799865722656,13.2ZM430.3399865722656,45.42C439.2799865722656,45.42,451.2199865722656,43.14,455.65998657226567,32.4C451.2199865722656,30.48,446.7799865722656,28.44,443.05998657226564,26.46C441.19998657226563,31.2,437.53998657226566,33.36,430.81998657226563,33.36C422.41998657226566,33.36,418.81998657226563,28.86,418.5199865722656,23.22C418.2199865722656,17.64,421.3399865722656,12,429.91998657226566,12C434.41998657226566,12,440.53998657226566,13.68,443.05998657226564,18.6C446.8399865722656,16.68,450.91998657226566,14.7,455.7199865722656,13.02C450.9799865722656,3.41998,441.43998657226564,0,430.3399865722656,0C411.43998657226564,0,403.93998657226564,9.66003,403.93998657226564,23.22C403.93998657226564,36.96,411.67998657226565,45.42,430.3399865722656,45.42ZM493.2199865722656,45.42C512.4799865722656,45.42,519.9799865722656,36.48,519.9799865722656,22.68C519.9799865722656,9.12,512.4799865722656,0,493.2199865722656,0C474.0199865722656,0,466.5199865722656,9.12,466.5199865722656,22.68C466.5199865722656,36.42,474.25998657226563,45.42,493.2199865722656,45.42ZM493.2199865722656,33.18C484.2799865722656,33.18,480.73998657226565,29.64,480.73998657226565,22.68C480.73998657226565,15.84,484.2199865722656,12.24,493.2199865722656,12.24C502.2799865722656,12.24,505.75998657226563,15.84,505.75998657226563,22.68C505.75998657226563,29.7,502.2799865722656,33.18,493.2199865722656,33.18ZM549.9799865722656,0.600037C545.0599865722656,0.600037,537.9199865722655,0.600037,530.7799865722657,1.20001C531.3799865722656,15.3,531.3799865722656,30.06,530.7799865722657,44.76C538.2799865722657,44.82,545.7799865722657,44.82,552.7999865722657,44.82C570.7399865722657,44.82,579.5599865722656,35.88,579.5599865722656,22.74C579.5599865722656,9.66003,573.4399865722656,0.600037,549.9799865722656,0.600037ZM545.7799865722657,32.88L545.7799865722657,12.9C548.6599865722656,12.54,551.5999865722656,12.54,554.4799865722656,12.54C562.3999865722656,12.54,563.7799865722657,17.7,563.7799865722657,22.74C563.7799865722657,27.9,562.6999865722656,32.88,554.4799865722656,32.88L545.7799865722657,32.88ZM590.3599865722656,13.2C593.8399865722656,13.02,597.3799865722656,12.84,600.8599865722656,12.78L600.8599865722656,33.3C597.3799865722656,33.24,593.8399865722656,33.06,590.3599865722656,32.88L590.3599865722656,44.82L625.2199865722656,44.82L625.2199865722656,32.88C621.6799865722656,33.06,618.1999865722656,33.24,614.6599865722656,33.3L614.6599865722656,12.78C618.1999865722656,12.84,621.6799865722656,13.02,625.2199865722656,13.2L625.2199865722656,1.26001L590.3599865722656,1.26001L590.3599865722656,13.2ZM671.6599865722656,1.32001L672.6799865722656,34.98L658.0999865722656,1.32001L636.0199865722657,1.32001C636.6199865722656,15.84,636.6199865722656,30.3,636.0199865722657,44.82L651.4399865722656,44.82L650.3599865722656,12.06L664.8799865722656,44.82L686.3599865722656,44.82C685.7599865722657,30.3,685.7599865722657,15.84,686.3599865722656,1.32001L671.6599865722656,1.32001ZM717.9799865722656,45.42C726.5599865722656,45.42,733.2199865722656,42,735.6799865722656,34.2L736.9399865722656,44.82L747.4999865722656,44.82L747.4999865722656,19.98L721.8799865722656,19.98L721.8799865722656,29.7L733.5799865722656,29.7C731.0599865722656,32.46,727.0999865722656,33.18,724.0399865722657,33.18C715.6399865722656,33.18,712.0399865722657,28.86,711.7399865722657,23.22C711.4399865722656,17.64,714.5599865722656,12,723.1399865722656,12C727.6399865722656,12,731.9599865722656,13.44,735.1999865722656,16.68C738.3199865722656,15,742.6999865722656,12.6,747.2599865722656,10.32C741.6199865722656,3.12,733.6999865722656,0,723.5599865722656,0C704.6599865722656,0,697.1599865722656,9.66003,697.1599865722656,23.22C697.1599865722656,36.96,705.8599865722656,45.42,717.9799865722656,45.42Z" fill="#FFFEFE" fill-opacity="1" style="mix-blend-mode:passthrough"/></g></g></g></g><g><g><g><path d="M288.74001977539064,192.94798388671876L298.2440197753906,192.94798388671876L298.2440197753906,196.28398388671874L283.9640197753906,196.28398388671874L283.9640197753906,193.71598388671876Q286.2439897753906,190.18798388671874,289.8199797753906,187.42798388671875Q294.5000197753906,184.06799388671874,294.1400197753906,182.17199388671875Q294.0680197753906,179.46002388671874,291.16402977539065,179.41198388671876Q288.3800397753906,179.38800388671876,287.7560097753906,182.84399388671875L284.03598017539065,182.02801388671875Q285.2599797753906,176.24401858671874,291.74001977539064,176.24401858671874Q297.86001977539064,176.48400888671875,298.2920197753906,181.78802388671875Q298.7240197753906,185.46002388671874,293.8520197753906,188.36398388671876Q290.63601977539065,190.57198388671875,288.74001977539064,192.94798388671876ZM310.6520197753906,176.19598388671875Q318.0200197753906,176.31597888671874,318.1160197753906,186.39598388671874Q318.2120197753906,196.73998388671876,310.6760197753906,196.61998388671876Q303.3080197753906,196.47598388671875,303.2360197753906,186.41998388671874Q303.4040197753906,176.50799588671876,310.6520197753906,176.19598388671875ZM310.7000197753906,193.54808388671876Q313.8920197753906,193.66798388671876,313.8680197753906,186.46798388671874Q313.9400197753906,179.10003388671876,310.6760197753906,179.26800388671876Q307.4360197753906,179.22003388671874,307.4600197753906,186.46798388671874Q307.4600197753906,193.57198388671875,310.7000197753906,193.54808388671876ZM327.3320197753906,192.94798388671876L336.83601977539064,192.94798388671876L336.83601977539064,196.28398388671874L322.5560197753906,196.28398388671874L322.5560197753906,193.71598388671876Q324.83601977539064,190.18798388671874,328.4120197753906,187.42798388671875Q333.0920197753906,184.06799388671874,332.73201977539065,182.17199388671875Q332.66001977539065,179.46002388671874,329.75601977539066,179.41198388671876Q326.9720197753906,179.38800388671876,326.34801977539064,182.84399388671875L322.6280197753906,182.02801388671875Q323.8520197753906,176.24401858671874,330.3320197753906,176.24401858671874Q336.4520197753906,176.48400888671875,336.88401977539064,181.78802388671875Q337.3160197753906,185.46002388671874,332.44401977539064,188.36398388671876Q329.22801977539064,190.57198388671875,327.3320197753906,192.94798388671876ZM341.75601977539066,191.31598388671875L345.74001977539064,190.45198388671875Q346.3640197753906,193.54808388671876,349.1960197753906,193.57198388671875Q352.2440197753906,193.30798388671874,352.4600197753906,190.01998388671876Q352.3640197753906,186.44398388671874,349.0760197753906,186.34798388671874Q346.9400197753906,186.41998388671874,345.81201977539064,187.76398388671876L342.5480197753906,187.71598388671876L343.3160197753906,176.65197788671875L355.3640197753906,176.65197788671875L355.3640197753906,179.94000388671876L346.6760197753906,179.94000388671876L346.2200197753906,184.81201388671874Q347.8760197753906,183.58801388671876,350.10801977539063,183.56402388671876Q356.20401977539063,183.80401388671876,356.46801977539064,189.80398388671875Q356.25201977539064,196.40398388671875,349.2200197753906,196.59598388671876Q343.2200197753906,196.61998388671876,341.75601977539066,191.31598388671875Z" fill="#FFFEFE" fill-opacity="1" style="mix-blend-mode:passthrough"/></g></g><g><g><path d="M374.2359916894531,197.77200634765626Q373.75601168945315,196.78800634765625,372.6759916894531,195.01200634765624Q372.5560016894531,194.84400634765626,372.50802168945313,194.74800634765626Q376.0119916894531,193.78800634765625,378.1239816894531,192.78000634765624Q376.4440016894531,191.19600634765624,374.83603168945314,188.70000634765626L376.7319816894531,187.47600634765624L374.2359916894531,187.47600634765624L374.2359916894531,184.42797634765626L388.13198168945314,184.42797634765626L388.13198168945314,187.64400634765624Q386.2359816894531,190.83600634765625,383.9799816894531,192.80400634765624Q386.1640816894531,193.81200634765625,389.40398168945313,194.46000634765625Q389.2839816894531,194.67600634765626,389.0439816894531,195.10800634765624Q388.13198168945314,196.86000634765625,387.7719816894531,197.58000634765625Q383.61998168945314,196.47600634765624,381.0279816894531,194.96400634765627Q378.2919816894531,196.57200634765624,374.2359916894531,197.77200634765626ZM375.4360016894531,184.16400634765625Q374.6440116894531,183.29998634765624,373.1319916894531,181.73998634765624Q374.83603168945314,180.90002634765625,375.4360016894531,180.10803634765625Q376.0600316894531,179.34002634765625,376.03598168945314,177.99603634765626L376.03598168945314,175.88403334765624L386.61998168945314,175.88403334765624L386.61998168945314,179.34002634765625Q386.54798168945314,180.46801634765626,387.6759816894531,180.39599634765625L389.54798168945314,180.39599634765625L389.0439816894531,183.34802634765626L386.1399816894531,183.34802634765626Q383.1640816894531,183.39599634765625,383.2119816894531,180.87603634765625L383.2119816894531,178.88403634765626L379.25198168945315,178.88403634765626L379.25198168945315,179.19598634765626Q379.44398168945315,182.12402634765624,375.4360016894531,184.16400634765625ZM370.03598168945314,196.88400634765625L367.9480316894531,194.24400634765624Q368.86001168945313,193.18800634765626,368.83603168945314,191.82000634765626L368.83603168945314,185.60400634765625L366.6999816894531,185.60400634765625L366.6999816894531,182.36401634765625L372.19601168945314,182.36401634765625L372.19601168945314,190.42800634765626L373.9480316894531,188.65200634765625Q374.21200168945313,189.70800634765624,374.83603168945314,191.48400634765625Q374.9079916894531,191.72400634765626,374.9560216894531,191.84400634765626Q373.0119916894531,193.62000634765624,371.52402168945315,195.20400634765625Q370.6600016894531,196.06800634765625,370.03598168945314,196.88400634765625ZM370.68399168945314,181.18798634765625Q369.4360016894531,179.14800634765626,367.7079816894531,176.72399634765625L370.6600016894531,175.06799314765624Q372.45999168945315,177.32403634765626,373.87601168945315,179.31597634765626L370.68399168945314,181.18798634765625ZM377.81198168945315,187.47600634765624Q379.44398168945315,189.75600634765624,381.0759816894531,191.02800634765626Q382.82808168945314,189.70800634765624,384.3639816894531,187.47600634765624L377.81198168945315,187.47600634765624ZM400.7559816894531,185.70000634765626L400.7559816894531,182.19598634765626L406.53998168945316,182.19598634765626L406.53998168945316,175.16400134765624L410.1399816894531,175.16400134765624L410.1399816894531,182.19598634765626L415.82808168945314,182.19598634765626L415.82808168945314,185.70000634765626L410.1399816894531,185.70000634765626L410.1399816894531,197.65200634765625L406.53998168945316,197.65200634765625L406.53998168945316,185.70000634765626L400.7559816894531,185.70000634765626ZM396.7479816894531,197.72400634765626L394.41998168945315,194.89200634765626Q395.42798168945313,193.88400634765625,395.42798168945313,192.34800634765625L395.42798168945313,185.70000634765626L393.2439816894531,185.70000634765626L393.2439816894531,182.41198634765624L398.9559816894531,182.41198634765624L398.9559816894531,191.14800634765623Q399.3399816894531,190.83600634765625,400.27598168945315,190.11600634765625Q401.1399816894531,189.44400634765626,401.59598168945314,189.08400634765624Q402.1479816894531,191.43600634765625,402.6279816894531,192.87600634765624Q399.7719816894531,194.91600634765626,397.9959816894531,196.45200634765627Q397.13198168945314,197.24400634765624,396.7479816894531,197.72400634765626ZM398.1640816894531,181.21203634765624Q396.6279816894531,179.29199634765624,394.6119816894531,177.03600634765624L397.39598168945315,175.04400634765625Q399.2439816894531,176.91601634765624,401.1399816894531,179.00402634765624L398.1640816894531,181.21203634765624ZM433.03598168945314,197.74800634765626L433.03598168945314,176.24401634765624L441.81998168945313,176.24401634765624L441.81998168945313,179.29199634765624L439.9239816894531,185.22000634765624Q442.29998168945315,187.54800634765624,442.27598168945315,190.66800634765625Q442.37198168945315,194.86800634765626,438.81998168945313,195.06000634765624Q438.2199816894531,195.10800634765624,436.8039816894531,195.10800634765624Q436.7319816894531,194.79600634765626,436.61198168945316,194.17200634765624Q436.32398168945315,192.61200634765626,436.13198168945314,191.84400634765626L436.13198168945314,197.74800634765626L433.03598168945314,197.74800634765626ZM420.1719816894531,180.25201634765625L420.1719816894531,177.49200634765626L424.27598168945315,177.49200634765626Q423.96398168945314,176.41198634765624,423.6040816894531,175.35601834765626L427.22798168945315,175.04400634765625Q427.41998168945315,175.69201634765625,427.7319816894531,176.94000634765624Q427.82808168945314,177.29998634765624,427.8759816894531,177.49200634765626L431.7639816894531,177.49200634765626L431.7639816894531,180.25201634765625L428.83598168945315,180.25201634765625L431.0439816894531,180.97198634765624L429.5319816894531,183.51598634765625L432.3399816894531,183.51598634765625L432.3399816894531,186.27600634765625L419.57198168945314,186.27600634765625L419.57198168945314,183.51598634765625L422.30798168945313,183.51598634765625Q421.5639816894531,182.34002634765625,420.7239816894531,181.26000634765626L422.76398168945315,180.25201634765625L420.1719816894531,180.25201634765625ZM420.5559816894531,197.41200634765624L420.5559816894531,187.86000634765625L431.40398168945313,187.86000634765625L431.40398168945313,197.29200634765624L428.2359816894531,197.29200634765624L428.2359816894531,196.16400634765625L423.6999816894531,196.16400634765625L423.6999816894531,197.41200634765624L420.5559816894531,197.41200634765624ZM436.13198168945314,179.29199634765624L436.13198168945314,191.77200634765626Q436.6599816894531,191.82000634765626,437.7879816894531,191.82000634765626Q439.1560816894531,191.86800634765626,439.08398168945314,190.26000634765626Q439.10798168945314,188.05200634765626,436.8519816894531,185.46000634765625L438.5319816894531,179.29199634765624L436.13198168945314,179.29199634765624ZM423.6999816894531,190.62000634765624L423.6999816894531,193.40400634765626L428.2359816894531,193.40400634765626L428.2359816894531,190.62000634765624L423.6999816894531,190.62000634765624ZM426.2439816894531,183.51598634765625Q427.41998168945315,181.26000634765626,427.8999816894531,180.25201634765625L423.5559816894531,180.25201634765625Q424.6359816894531,181.61999634765624,425.3800816894531,182.65197634765624L423.6759816894531,183.51598634765625L426.2439816894531,183.51598634765625Z" fill="#FFFEFE" fill-opacity="1" style="mix-blend-mode:passthrough"/></g></g><g><g><path d="M463.43600610351564,176.5560302734375L470.94800610351564,196.3080302734375L466.48400610351564,196.3080302734375L464.85200610351563,191.6760302734375L457.12399610351565,191.6760302734375L455.5400061035156,196.3080302734375L451.1000061035156,196.3080302734375L458.61202610351563,176.5560302734375L463.43600610351564,176.5560302734375ZM460.9880061035156,179.8439902734375L460.94003610351564,179.8439902734375Q460.8440261035156,180.3720102734375,460.43600610351564,181.5720202734375Q460.3399961035156,181.8120102734375,458.0600261035156,188.5080302734375L464.0360061035156,188.5080302734375Q461.5880061035156,181.7880202734375,461.4920061035156,181.5480302734375Q461.4440061035156,181.3800002734375,461.3480061035156,181.0440102734375Q461.0600261035156,180.1799902734375,460.9880061035156,179.8439902734375ZM475.53200610351564,196.3320302734375L475.53200610351564,176.5800170734375L479.6120061035156,176.5800170734375L479.6120061035156,196.3320302734375L475.53200610351564,196.3320302734375Z" fill="#FFFEFE" fill-opacity="1" style="mix-blend-mode:passthrough"/></g></g><g><g><path d="M509.15598706054686,182.22003173828125L505.2439870605469,183.15600173828125Q504.2119870605469,179.91601173828124,500.8280370605469,179.77203173828124Q496.07601706054686,180.06000173828124,495.7640070605469,186.37203173828124Q495.9800070605469,192.70803173828125,500.85201706054687,193.11603173828127Q504.76398706054687,193.06803173828126,505.4359870605469,188.65193173828126L509.37198706054687,189.90003173828126Q507.85998706054687,196.59603173828125,500.85201706054687,196.66803173828126Q491.92398106054685,196.21203173828124,491.4679870605469,186.37203173828124Q491.92398106054685,176.74798573828124,500.85201706054687,176.24401853828124Q507.2359870605469,176.48400873828126,509.15598706054686,182.22003173828125ZM523.8439870605469,176.26800533828126Q532.8679870605469,176.82000773828125,533.4919870605469,186.51603173828124Q533.0119870605469,196.16403173828124,523.7959870605468,196.69203173828126Q514.6279870605468,196.11603173828127,514.0999870605468,186.51603173828124Q514.5559870605468,176.67602573828125,523.8439870605469,176.26800533828126ZM523.6759870605468,193.14003173828127Q528.8599870605469,192.94803173828126,529.0279870605468,186.51603173828124Q528.8119870605469,180.03601173828125,523.6999870605468,179.77203173828124Q518.6359870605469,180.13202173828125,518.3719870605469,186.49203173828124Q518.5879870605469,192.78003173828125,523.6759870605468,193.14003173828127ZM545.6119870605469,196.33203173828124L539.1799870605469,196.33203173828124L539.1799870605469,176.58001673828124L545.3959870605469,176.58001673828124Q555.8120870605469,176.72399873828124,555.9799870605468,186.22803173828126Q556.2919870605468,196.62003173828126,545.6119870605469,196.33203173828124ZM545.2759870605469,179.91601173828124L543.2599870605469,179.91601173828124L543.2599870605469,192.99603173828126L545.2999870605469,192.99603173828126Q551.7080870605469,193.02003173828126,551.6839870605469,186.27603173828126Q551.5159870605469,180.06000173828124,545.2759870605469,179.91601173828124ZM562.0279870605468,196.33203173828124L562.0279870605468,176.58001673828124L566.1080870605468,176.58001673828124L566.1080870605468,196.33203173828124L562.0279870605468,196.33203173828124ZM590.2280870605468,196.33203173828124L585.9799870605468,196.33203173828124Q578.2759870605469,184.06799173828125,577.8919870605469,183.44403173828124Q577.6279870605468,183.03601173828125,576.8359870605468,181.54803173828125L576.8120870605469,181.54803173828125Q576.8840870605469,182.72400173828126,576.8840870605469,184.93201173828126L576.8840870605469,196.33203173828124L573.0200870605469,196.33203173828124L573.0200870605469,176.58001673828124L577.5079870605468,176.58001673828124Q584.9719870605469,188.53203173828126,585.3320870605469,189.10803173828126Q586.0279870605468,190.30803173828124,586.3879870605468,191.05203173828124L586.4360870605469,191.05203173828124Q586.3640870605469,190.14003173828124,586.3640870605469,188.10003173828125L586.3399870605468,176.58001673828124L590.2280870605468,176.58001673828124L590.2280870605468,196.33203173828124ZM614.8279870605469,184.93201173828126L614.8279870605469,192.22803173828126Q612.8599870605469,196.59603173828125,605.9479870605469,196.64403173828126Q596.6839870605469,196.21203173828124,596.2519870605469,186.32403173828123Q596.7319870605469,176.74798573828124,605.6599870605469,176.22003173828125Q612.4519870605469,176.24401853828124,614.6359870605469,181.23602173828124L610.8679870605469,182.67602173828124Q609.4519870605469,179.72400173828126,605.7559870605469,179.74798173828125Q600.9559870605469,180.20398173828124,600.5719870605469,186.34803173828124Q600.8119870605469,192.68403173828125,606.0919870605469,193.09193173828126Q609.6679870605469,193.06803173828126,611.0599870605469,191.02803173828124L611.0599870605469,188.22003173828125L605.1079870605469,188.22003173828125L605.1079870605469,184.93201173828126L614.8279870605469,184.93201173828126Z" fill="#FFFEFE" fill-opacity="1" style="mix-blend-mode:passthrough"/></g></g><g><g><path d="M633.0200450878906,179.26800998046875Q632.8519550878906,177.63598998046876,632.6360150878907,176.38799998046875Q639.8840650878906,176.24401998046875,647.1080650878906,175.69201698046874L647.4439650878907,178.59600998046875Q644.6119650878907,178.78801998046876,647.1319650878906,178.61999998046875Q644.6119650878907,178.78801998046876,641.7800650878906,178.93200998046876L641.7800650878906,181.47600998046875L648.2839650878906,181.47600998046875L648.2839650878906,184.47600998046875L641.7800650878906,184.47600998046875L641.7800650878906,187.06797998046875L647.2039650878907,187.06797998046875L647.2039650878907,197.57997998046875L643.7719650878906,197.57997998046875L643.7719650878906,196.35597998046876L636.3320650878907,196.35597998046876L636.3320650878907,197.60397998046875L632.9000550878907,197.60397998046875L632.9000550878907,187.06797998046875L638.2999650878907,187.06797998046875L638.2999650878907,184.47600998046875L632.0599650878906,184.47600998046875L632.0599650878906,181.47600998046875L638.2999650878907,181.47600998046875L638.2999650878907,179.07598998046876Q635.6839650878907,179.19597998046876,633.0200450878906,179.26800998046875ZM629.4440050878907,197.65197998046875L626.1080630878906,196.59597998046874Q627.4039650878906,192.53997998046876,628.4599950878907,188.05197998046876Q630.3800350878906,188.77207998046876,631.7240250878906,189.17997998046874L629.4440050878907,197.65197998046875ZM636.3320650878907,189.97197998046875L636.3320650878907,193.40397998046876L643.7719650878906,193.40397998046876L643.7719650878906,189.97197998046875L636.3320650878907,189.97197998046875ZM629.1799650878907,187.01997998046875Q628.9160450878907,186.75597998046874,628.3399950878907,186.20397998046874Q626.3960270878906,184.26000998046874,625.5079650878906,183.49199998046876L627.8120450878906,181.18798998046876Q630.0680250878906,183.01201998046875,631.6760550878906,184.52398998046874L629.1799650878907,187.01997998046875ZM629.8039850878906,181.02001998046876Q627.5720550878906,178.81200998046876,626.0599670878906,177.53997998046876L628.2440450878906,175.26000998046874Q628.3399950878907,175.35601798046875,628.5560650878906,175.52398698046875Q631.1479750878906,177.56402998046875,632.2280550878907,178.54802998046875L629.8039850878906,181.02001998046876ZM652.1479650878906,185.45997998046874L652.1479650878906,182.46001998046876L663.0680650878907,182.46001998046876L663.0680650878907,185.45997998046874L658.6519650878906,185.45997998046874Q657.0200650878907,189.99607998046875,656.1080650878906,191.89197998046876Q657.2600650878907,191.86797998046876,659.8280650878906,191.67597998046875Q659.6600650878906,191.22007998046874,659.2999650878907,190.30797998046876Q658.5560650878906,188.38797998046874,658.2679650878906,187.52397998046874L660.9559650878906,186.66007998046874Q661.7240650878906,188.50797998046875,663.4039650878906,192.92397998046874Q665.1080650878906,190.47597998046876,665.1080650878906,182.55602998046874L663.2600650878907,182.55602998046874L663.2600650878907,179.46001998046876L665.1799650878907,179.46001998046876Q665.2280650878906,176.79601998046874,665.2519650878907,175.09197998046875L668.4680650878906,175.09197998046875Q668.4439650878907,177.29998998046875,668.3719650878907,179.46001998046876L674.1080650878906,179.46001998046876Q673.9640650878906,190.18797998046875,673.8440650878906,193.66797998046874Q673.7719650878906,196.97997998046876,670.8440650878906,197.12397998046876Q669.2839650878906,197.22007998046874,667.3399650878906,197.22007998046874Q666.9799650878906,195.17997998046874,666.6439650878906,193.83597998046875Q666.9320650878906,193.83597998046875,667.4840650878906,193.85997998046875Q668.5880650878906,193.90797998046875,669.1400650878907,193.90797998046875Q670.4599650878906,193.95597998046875,670.5319650878906,192.49197998046876Q670.7479650878906,187.47597998046876,670.7479650878906,182.55602998046874L668.2999650878907,182.55602998046874L668.2999650878907,182.60399998046876Q668.1560650878906,188.81997998046876,667.3159650878906,191.62797998046875Q666.5479650878906,194.57997998046875,664.0279650878906,197.86797998046876Q663.7159650878906,197.67597998046875,663.1400650878907,197.29197998046874Q661.9399650878906,196.47597998046876,661.0520650878906,195.97197998046875Q661.4840650878906,195.51597998046876,661.8679650878906,195.03597998046874L661.1479650878906,195.29997998046875Q661.0759650878906,195.10807998046874,660.9559650878906,194.77207998046876Q660.9320650878906,194.65197998046875,660.9079650878906,194.60397998046875Q657.9320650878906,194.84397998046876,655.9160650878906,195.05997998046874Q654.6439650878906,195.20397998046874,653.2760650878906,195.66007998046877L652.0520650878906,192.70797998046874Q652.6760650878906,192.15597998046874,653.1560650878906,191.17197998046873Q654.3320650878907,188.45997998046874,655.1959650878906,185.45997998046874L652.1479650878906,185.45997998046874ZM653.2519650878907,179.53197998046875L653.2519650878907,176.48400998046876L662.3239650878907,176.48400998046876L662.3239650878907,179.53197998046875L653.2519650878907,179.53197998046875Z" fill="#FFFEFE" fill-opacity="1" style="mix-blend-mode:passthrough"/></g></g></g></g></svg>